<svg xmlns="http://www.w3.org/2000/svg" viewBox="0 0 200 350" width="200" height="350" preserveAspectRatio="xMidYMid meet" style="width: 100%; height: 100%; transform: translate3d(0px, 0px, 0px);"><defs><clipPath id="__lottie_element_2"><rect width="200" height="350" x="0" y="0"></rect></clipPath><linearGradient id="__lottie_element_10" spreadMethod="pad" gradientUnits="userSpaceOnUse" x1="4.25" y1="-2.75" x2="93.5" y2="60"><stop offset="0%" stop-color="rgb(247,247,247)" stop-opacity="1"></stop><stop offset="60%" stop-color="rgb(159,159,159)" stop-opacity="1"></stop><stop offset="100%" stop-color="rgb(251,255,241)" stop-opacity="0.9900000095367432"></stop></linearGradient><linearGradient id="__lottie_element_15" spreadMethod="pad" gradientUnits="userSpaceOnUse" x1="-9.25" y1="1.75" x2="5" y2="-1.25"><stop offset="0%" stop-color="rgb(239,239,239)" stop-opacity="1"></stop><stop offset="60%" stop-color="rgb(232,239,236)" stop-opacity="1"></stop><stop offset="100%" stop-color="rgb(252,255,244)" stop-opacity="0.9900000095367432"></stop></linearGradient><linearGradient id="__lottie_element_19" spreadMethod="pad" gradientUnits="userSpaceOnUse" x1="-14.187999725341797" y1="6.686999797821045" x2="5.688000202178955" y2="-2.25"><stop offset="0%" stop-color="rgb(239,239,239)" stop-opacity="1"></stop><stop offset="60%" stop-color="rgb(232,239,236)" stop-opacity="1"></stop><stop offset="100%" stop-color="rgb(252,255,244)" stop-opacity="0.9900000095367432"></stop></linearGradient><linearGradient id="__lottie_element_27" spreadMethod="pad" gradientUnits="userSpaceOnUse" x1="-14" y1="15.5" x2="13.5" y2="-14"><stop offset="0%" stop-color="rgb(235,235,235)" stop-opacity="1"></stop><stop offset="60%" stop-color="rgb(232,232,232)" stop-opacity="1"></stop><stop offset="100%" stop-color="rgb(252,255,245)" stop-opacity="0.9900000095367432"></stop></linearGradient><linearGradient id="__lottie_element_31" spreadMethod="pad" gradientUnits="userSpaceOnUse" x1="-46.5" y1="55" x2="55" y2="-42"><stop offset="0%" stop-color="rgb(235,235,235)" stop-opacity="1"></stop><stop offset="60%" stop-color="rgb(232,232,232)" stop-opacity="1"></stop><stop offset="100%" stop-color="rgb(252,255,245)" stop-opacity="0.9900000095367432"></stop></linearGradient><linearGradient id="__lottie_element_46" spreadMethod="pad" gradientUnits="userSpaceOnUse" x1="-1" y1="21" x2="-0.5" y2="-18.5"><stop offset="0%" stop-color="rgb(65,167,245)" stop-opacity="1"></stop><stop offset="60%" stop-color="rgb(116,195,255)" stop-opacity="1"></stop><stop offset="100%" stop-color="rgb(65,167,245)" stop-opacity="1"></stop></linearGradient><radialGradient id="__lottie_element_55" spreadMethod="pad" gradientUnits="userSpaceOnUse" cx="0" cy="0" r="17.251811499086116" fx="0" fy="0"><stop offset="0%" stop-color="rgb(50,128,252)" stop-opacity="1"></stop><stop offset="60%" stop-color="rgb(25,64,126)" stop-opacity="0.75"></stop><stop offset="100%" stop-color="rgb(0,0,0)" stop-opacity="0.5"></stop></radialGradient><clipPath id="__lottie_element_64"><path d="M0,0 L20000,0 L20000,20000 L0,20000z"></path></clipPath><radialGradient id="__lottie_element_72" spreadMethod="pad" gradientUnits="userSpaceOnUse" cx="0" cy="0" r="17.251811499086116" fx="0" fy="0"><stop offset="0%" stop-color="rgb(50,128,252)" stop-opacity="1"></stop><stop offset="60%" stop-color="rgb(25,64,126)" stop-opacity="0.75"></stop><stop offset="100%" stop-color="rgb(0,0,0)" stop-opacity="0.5"></stop></radialGradient><clipPath id="__lottie_element_85"><path d="M0,0 L20000,0 L20000,20000 L0,20000z"></path></clipPath><linearGradient id="__lottie_element_97" spreadMethod="pad" gradientUnits="userSpaceOnUse" x1="-2.375" y1="0.625" x2="23.5" y2="-28.25"><stop offset="0%" stop-color="rgb(186,186,186)" stop-opacity="1"></stop><stop offset="60%" stop-color="rgb(227,227,227)" stop-opacity="1"></stop><stop offset="100%" stop-color="rgb(252,255,244)" stop-opacity="0.9900000095367432"></stop></linearGradient><linearGradient id="__lottie_element_102" spreadMethod="pad" gradientUnits="userSpaceOnUse" x1="-26.30299949645996" y1="27.163000106811523" x2="41.01100158691406" y2="-61.79800033569336"><stop offset="0%" stop-color="rgb(255,255,255)" stop-opacity="1"></stop><stop offset="33%" stop-color="rgb(217,217,217)" stop-opacity="1"></stop><stop offset="55%" stop-color="rgb(234,234,234)" stop-opacity="0.9900000095367432"></stop><stop offset="77%" stop-color="rgb(248,255,245)" stop-opacity="1"></stop><stop offset="100%" stop-color="rgb(254,255,251)" stop-opacity="1"></stop></linearGradient><linearGradient id="__lottie_element_106" spreadMethod="pad" gradientUnits="userSpaceOnUse" x1="-13.5" y1="7.5" x2="33" y2="-45"><stop offset="0%" stop-color="rgb(255,255,255)" stop-opacity="1"></stop><stop offset="60%" stop-color="rgb(221,221,221)" stop-opacity="1"></stop><stop offset="100%" stop-color="rgb(255,255,255)" stop-opacity="0.9900000095367432"></stop></linearGradient><linearGradient id="__lottie_element_111" spreadMethod="pad" gradientUnits="userSpaceOnUse" x1="23" y1="13" x2="-30" y2="-15"><stop offset="0%" stop-color="rgb(204,204,204)" stop-opacity="1"></stop><stop offset="60%" stop-color="rgb(224,224,224)" stop-opacity="1"></stop><stop offset="100%" stop-color="rgb(253,255,248)" stop-opacity="0.9900000095367432"></stop></linearGradient><linearGradient id="__lottie_element_115" spreadMethod="pad" gradientUnits="userSpaceOnUse" x1="-11.5" y1="7" x2="22" y2="-12"><stop offset="0%" stop-color="rgb(204,204,204)" stop-opacity="1"></stop><stop offset="60%" stop-color="rgb(224,224,224)" stop-opacity="1"></stop><stop offset="100%" stop-color="rgb(253,255,248)" stop-opacity="0.9900000095367432"></stop></linearGradient><radialGradient id="__lottie_element_126" spreadMethod="pad" gradientUnits="userSpaceOnUse" cx="0" cy="0" r="19.38800048828125" fx="0" fy="0"><stop offset="0%" stop-color="rgb(232,232,232)" stop-opacity="1"></stop><stop offset="60%" stop-color="rgb(237,237,237)" stop-opacity="0.5"></stop><stop offset="100%" stop-color="rgb(255,255,255)" stop-opacity="0"></stop></radialGradient><linearGradient id="__lottie_element_131" spreadMethod="pad" gradientUnits="userSpaceOnUse"><stop></stop><stop></stop><stop></stop></linearGradient><linearGradient id="__lottie_element_135" spreadMethod="pad" gradientUnits="userSpaceOnUse"><stop></stop><stop></stop><stop></stop><stop></stop><stop></stop></linearGradient><linearGradient id="__lottie_element_139" spreadMethod="pad" gradientUnits="userSpaceOnUse"><stop></stop><stop></stop><stop></stop></linearGradient><linearGradient id="__lottie_element_143" spreadMethod="pad" gradientUnits="userSpaceOnUse"><stop></stop><stop></stop><stop></stop></linearGradient><linearGradient id="__lottie_element_147" spreadMethod="pad" gradientUnits="userSpaceOnUse"><stop></stop><stop></stop><stop></stop></linearGradient><linearGradient id="__lottie_element_151" spreadMethod="pad" gradientUnits="userSpaceOnUse"><stop></stop><stop></stop><stop></stop></linearGradient><linearGradient id="__lottie_element_155" spreadMethod="pad" gradientUnits="userSpaceOnUse"><stop></stop><stop></stop><stop></stop></linearGradient><linearGradient id="__lottie_element_159" spreadMethod="pad" gradientUnits="userSpaceOnUse"><stop></stop><stop></stop><stop></stop></linearGradient><clipPath id="__lottie_element_200"><path d="M0,0 L20000,0 L20000,20000 L0,20000z"></path></clipPath><mask id="__lottie_element_203" mask-type="alpha"><g transform="matrix(1,0,0,1,10000,10000)" opacity="1" style="display: block;"><g opacity="1" transform="matrix(1,0,0,1,0,0)"><path fill="rgb(0,0,0)" fill-opacity="1" d=" M27.5,22.25 C27.5,27.773000717163086 23.023000717163086,32.25 17.5,32.25 C11.97700023651123,32.25 7.5,27.773000717163086 7.5,22.25 C7.5,16.726999282836914 11.97700023651123,12.25 17.5,12.25 C23.023000717163086,12.25 27.5,16.726999282836914 27.5,22.25"></path></g></g></mask><clipPath id="__lottie_element_238"><path d="M0,0 L20000,0 L20000,20000 L0,20000z"></path></clipPath><mask id="__lottie_element_241" mask-type="alpha"><g transform="matrix(1,0,0,1,10000,10000)" opacity="1" style="display: block;"><g opacity="1" transform="matrix(1,0,0,1,0,0)"><path fill="rgb(0,0,0)" fill-opacity="1" d=" M27.5,22.25 C27.5,27.773000717163086 23.023000717163086,32.25 17.5,32.25 C11.97700023651123,32.25 7.5,27.773000717163086 7.5,22.25 C7.5,16.726999282836914 11.97700023651123,12.25 17.5,12.25 C23.023000717163086,12.25 27.5,16.726999282836914 27.5,22.25"></path></g></g></mask></defs><g clip-path="url(#__lottie_element_2)"><g transform="matrix(0.9989356398582458,-0.04612592235207558,0.04612592235207558,0.9989356398582458,14.289718627929688,186.6514434814453)" opacity="1" style="display: block;"><g opacity="1" transform="matrix(1,0,0,1,28.354999542236328,19.170000076293945)"><path fill="url(#__lottie_element_10)" fill-opacity="1" d=" M-7.327000141143799,-16.21299934387207 C15.6899995803833,-9.907999992370605 21.12700080871582,-11.673999786376953 25.229000091552734,-5.502999782562256 C25.700000762939453,-4.795000076293945 28.104999542236328,-1.1759999990463257 27.624000549316406,3.4709999561309814 C27.23900032043457,7.172999858856201 25.17799949645996,10.029000282287598 23.8799991607666,11.28600025177002 C15.994999885559082,18.91900062561035 -5.702000141143799,9.581000328063965 -18.128000259399414,-0.6320000290870667 C-20.836999893188477,-2.8589999675750732 -28.106000900268555,-8.831999778747559 -26.642000198364258,-13.074999809265137 C-26.04199981689453,-14.814000129699707 -24.179000854492188,-15.677000045776367 -22.841999053955078,-16.274999618530273 C-16.93000030517578,-18.920000076293945 -10.79800033569336,-17.163000106811523 -7.327000141143799,-16.21299934387207"></path></g></g><g transform="matrix(1,0,0,1,111.14237213134766,127.40451049804688)" opacity="1" style="display: block;"><g opacity="1" transform="matrix(1,0,0,1,-6.096000671386719,-79.01100158691406)"><path fill="url(#__lottie_element_15)" fill-opacity="1" d=" M2.4489998817443848,16.073999404907227 C2.4489998817443848,16.073999404907227 -2.4489998817443848,16.073999404907227 -2.4489998817443848,16.073999404907227 C-2.4489998817443848,16.073999404907227 -2.4489998817443848,-16.073999404907227 -2.4489998817443848,-16.073999404907227 C-2.4489998817443848,-16.073999404907227 2.4489998817443848,-16.073999404907227 2.4489998817443848,-16.073999404907227 C2.4489998817443848,-16.073999404907227 2.4489998817443848,16.073999404907227 2.4489998817443848,16.073999404907227"></path></g></g><g transform="matrix(1,0,0,1,111.14237213134766,127.40451049804688)" opacity="1" style="display: block;"><g opacity="1" transform="matrix(1,0,0,1,-6.096000671386719,-97.22799682617188)"><path fill="url(#__lottie_element_19)" fill-opacity="1" d=" M6.2769999504089355,0 C6.2769999504089355,3.4660000801086426 3.4660000801086426,6.276000022888184 0.0010000000474974513,6.276000022888184 C-3.4660000801086426,6.276000022888184 -6.2769999504089355,3.4660000801086426 -6.2769999504089355,0 C-6.2769999504089355,-3.4660000801086426 -3.4660000801086426,-6.276000022888184 0.0010000000474974513,-6.276000022888184 C3.4660000801086426,-6.276000022888184 6.2769999504089355,-3.4660000801086426 6.2769999504089355,0"></path></g></g><g transform="matrix(1,0,0,1,111.14237213134766,127.40451049804688)" opacity="1" style="display: block;"><g opacity="1" transform="matrix(1,0,0,1,-3.647003173828125,-99.677001953125)"><path fill="rgb(255,255,255)" fill-opacity="1" d=" M1.9140000343322754,0 C1.9140000343322754,1.0570000410079956 1.0570000410079956,1.9140000343322754 0,1.9140000343322754 C-1.0570000410079956,1.9140000343322754 -1.9140000343322754,1.0570000410079956 -1.9140000343322754,0 C-1.9140000343322754,-1.0570000410079956 -1.0570000410079956,-1.9140000343322754 0,-1.9140000343322754 C1.0570000410079956,-1.9140000343322754 1.9140000343322754,-1.0570000410079956 1.9140000343322754,0"></path></g></g><g transform="matrix(1,0,0,1,111.14237213134766,127.40451049804688)" opacity="1" style="display: block;"><g opacity="1" transform="matrix(1,0,0,1,-6.095001220703125,-55.742000579833984)"><path fill="url(#__lottie_element_27)" fill-opacity="1" d=" M16.91699981689453,10.562999725341797 C16.91699981689453,10.562999725341797 -16.91699981689453,10.562999725341797 -16.91699981689453,10.562999725341797 C-19.41200065612793,10.562999725341797 -21.43400001525879,8.541000366210938 -21.43400001525879,6.046000003814697 C-21.43400001525879,6.046000003814697 -21.43400001525879,-6.046000003814697 -21.43400001525879,-6.046000003814697 C-21.43400001525879,-8.541000366210938 -19.41200065612793,-10.562999725341797 -16.91699981689453,-10.562999725341797 C-16.91699981689453,-10.562999725341797 16.91699981689453,-10.562999725341797 16.91699981689453,-10.562999725341797 C19.410999298095703,-10.562999725341797 21.43400001525879,-8.541000366210938 21.43400001525879,-6.046000003814697 C21.43400001525879,-6.046000003814697 21.43400001525879,6.046000003814697 21.43400001525879,6.046000003814697 C21.43400001525879,8.541000366210938 19.410999298095703,10.562999725341797 16.91699981689453,10.562999725341797"></path></g></g><g transform="matrix(1,0,0,1,111.14237213134766,127.40451049804688)" opacity="1" style="display: block;"><g opacity="1" transform="matrix(1,0,0,1,-6.096000671386719,2.125)"><path fill="url(#__lottie_element_31)" fill-opacity="1" d=" M76.6969985961914,22.96299934387207 C76.6969985961914,42.49300003051758 60.862998962402344,58.32600021362305 41.33300018310547,58.32600021362305 C41.33300018310547,58.32600021362305 -41.33300018310547,58.32600021362305 -41.33300018310547,58.32600021362305 C-60.78300094604492,58.32600021362305 -76.6969985961914,42.4119987487793 -76.6969985961914,22.96299934387207 C-76.6969985961914,22.96299934387207 -76.6969985961914,4.5920000076293945 -76.6969985961914,4.5920000076293945 C-76.6969985961914,-30.01300048828125 -48.38399887084961,-58.32600021362305 -13.779000282287598,-58.32600021362305 C-13.779000282287598,-58.32600021362305 13.777000427246094,-58.32600021362305 13.777000427246094,-58.32600021362305 C48.382999420166016,-58.32600021362305 76.6969985961914,-30.01300048828125 76.6969985961914,4.5920000076293945 C76.6969985961914,4.5920000076293945 76.6969985961914,22.96299934387207 76.6969985961914,22.96299934387207"></path></g></g><g transform="matrix(1,0,0,1,111.14237213134766,127.40451049804688)" opacity="1" style="display: block;"><g opacity="1" transform="matrix(1,0,0,1,38.7760009765625,-38.73200225830078)"><path fill="rgb(255,255,255)" fill-opacity="1" d=" M9.17300033569336,2.6559998989105225 C9.255999565124512,5.586999893188477 6.86299991607666,9.090999603271484 4.122000217437744,9.390000343322754 C1.5540000200271606,9.670999526977539 -0.4970000088214874,7.047999858856201 -2.6110000610351562,4.3420000076293945 C-4.696000099182129,1.6749999523162842 -9.255000114440918,-5.177000045776367 -7.439000129699707,-7.114999771118164 C-5.045000076293945,-9.67199993133545 8.97700023651123,-4.257999897003174 9.17300033569336,2.6559998989105225"></path></g></g><g transform="matrix(1,0,0,1,111.14237213134766,127.40451049804688)" opacity="1" style="display: block;"><g opacity="1" transform="matrix(1,0,0,1,24.48699951171875,-49.427001953125)"><path fill="rgb(255,255,255)" fill-opacity="1" d=" M2.181999921798706,0 C2.181999921798706,1.2050000429153442 1.2039999961853027,2.181999921798706 -0.0010000000474974513,2.181999921798706 C-1.2059999704360962,2.181999921798706 -2.181999921798706,1.2050000429153442 -2.181999921798706,0 C-2.181999921798706,-1.2050000429153442 -1.2059999704360962,-2.181999921798706 -0.0010000000474974513,-2.181999921798706 C1.2039999961853027,-2.181999921798706 2.181999921798706,-1.2050000429153442 2.181999921798706,0"></path></g></g><g transform="matrix(1,0,0,1,111.14237213134766,127.40451049804688)" opacity="1" style="display: block;"><g opacity="1" transform="matrix(1,0,0,1,4.614997863769531,-63.150001525878906)"><path fill="rgb(255,255,255)" fill-opacity="1" d=" M9.482999801635742,3.0989999771118164 C9.32699966430664,3.121000051498413 9.22700023651123,2.2039999961853027 8.463000297546387,0.7860000133514404 C8.463000297546387,0.7860000133514404 8.105999946594238,0.12399999797344208 7.697999954223633,-0.43799999356269836 C6.381999969482422,-2.247999906539917 1.9249999523162842,-2.2079999446868896 1.5750000476837158,-2.2049999237060547 C-5.36899995803833,-2.1440000534057617 -9.831000328063965,-2.5840001106262207 -9.829999923706055,-2.5429999828338623 C-9.829000473022461,-2.506999969482422 -6.573999881744385,-2.5739998817443848 -4.188000202178955,-2.621999979019165 C2.5439999103546143,-2.759000062942505 6.552999973297119,-3.121000051498413 8.272000312805176,-1.3179999589920044 C8.984999656677246,-0.5699999928474426 9.343000411987305,0.40400001406669617 9.343000411987305,0.40400001406669617 C9.831000328063965,1.7259999513626099 9.668999671936035,3.072000026702881 9.482999801635742,3.0989999771118164"></path></g></g><g transform="matrix(1,0,0,1,111.14237213134766,127.40451049804688)" opacity="1" style="display: block;"><g opacity="1" transform="matrix(1,0,0,1,-6.096000671386719,0.1750049591064453)"><path fill="url(#__lottie_element_46)" fill-opacity="1" d=" M52.56999969482422,21.56399917602539 C52.56999969482422,21.56399917602539 52.56999969482422,21.56399917602539 52.56999969482422,21.56399917602539 C50.5620002746582,22.555999755859375 48.3129997253418,23.076000213623047 46.0260009765625,23.076000213623047 C46.0260009765625,23.076000213623047 -46.0260009765625,23.076000213623047 -46.0260009765625,23.076000213623047 C-48.3120002746582,23.076000213623047 -50.5620002746582,22.555999755859375 -52.569000244140625,21.56399917602539 C-57.499000549316406,19.12700080871582 -60.28200149536133,14.206999778747559 -59.584999084472656,9.157999992370605 C-59.584999084472656,9.157999992370605 -59.534000396728516,8.789999961853027 -59.534000396728516,8.789999961853027 C-57.17599868774414,-8.309000015258789 -41.68899917602539,-21.454999923706055 -22.70400047302246,-22.441999435424805 C-14.670999526977539,-22.860000610351562 -6.241000175476074,-23.076000213623047 2.552000045776367,-23.024999618530273 C9.440999984741211,-22.985000610351562 16.099000930786133,-22.783000946044922 22.509000778198242,-22.452999114990234 C41.56700134277344,-21.469999313354492 57.167999267578125,-8.37600040435791 59.53499984741211,8.788000106811523 C59.55099868774414,8.91100025177002 59.569000244140625,9.034000396728516 59.58599853515625,9.157999992370605 C60.28200149536133,14.206999778747559 57.5,19.12700080871582 52.56999969482422,21.56399917602539"></path></g></g><g transform="matrix(1,0,0,1,111.14237213134766,127.40451049804688)" opacity="1" style="display: block;"><g opacity="1" transform="matrix(1,0,0,1,34.43800354003906,-7.172998428344727)"><path fill="rgb(255,255,255)" fill-opacity="1" d=" M13.496999740600586,12.01200008392334 C12.79699993133545,12.505999565124512 7.916999816894531,2.565999984741211 -5.179999828338623,-6.052000045776367 C-9.782999992370605,-9.081999778747559 -14.329000473022461,-11.239999771118164 -14.059000015258789,-11.868000030517578 C-13.78499984741211,-12.505999565124512 -8.666000366210938,-11.319999694824219 -4.566999912261963,-9.418999671936035 C8.489999771118164,-3.3610000610351562 14.329000473022461,11.425000190734863 13.496999740600586,12.01200008392334"></path></g></g><g transform="matrix(1,0,0,1,111.14237213134766,127.40451049804688)" opacity="1" style="display: block;"><g opacity="1" transform="matrix(1,0,0,1,16.611000061035156,2.045999526977539)"><path fill="url(#__lottie_element_55)" fill-opacity="1" d=" M17.5,0 C17.5,0 17.5,0 17.5,0 C17.5,9.658249855041504 9.658249855041504,17.5 0,17.5 C0,17.5 0,17.5 0,17.5 C-9.658249855041504,17.5 -17.5,9.658249855041504 -17.5,0 C-17.5,0 -17.5,0 -17.5,0 C-17.5,-9.658249855041504 -9.658249855041504,-17.5 0,-17.5 C0,-17.5 0,-17.5 0,-17.5 C9.658249855041504,-17.5 17.5,-9.658249855041504 17.5,0z"></path></g></g><g transform="matrix(1,0,0,1,111.14237213134766,127.40451049804688)" opacity="1" style="display: block;"><g opacity="1" transform="matrix(1,0,0,1,16.611000061035156,2.045999526977539)"><path fill="rgb(255,255,255)" fill-opacity="1" d=" M12.5,0 C12.5,0 12.5,0 12.5,0 C12.5,6.898749828338623 6.898749828338623,12.5 0,12.5 C0,12.5 0,12.5 0,12.5 C-6.898749828338623,12.5 -12.5,6.898749828338623 -12.5,0 C-12.5,0 -12.5,0 -12.5,0 C-12.5,-6.898749828338623 -6.898749828338623,-12.5 0,-12.5 C0,-12.5 0,-12.5 0,-12.5 C6.898749828338623,-12.5 12.5,-6.898749828338623 12.5,0z"></path></g></g><g transform="matrix(1,0,0,1,111.14237213134766,127.40451049804688)" opacity="1" style="display: block;"><g opacity="1" transform="matrix(1,0,0,1,16.611000061035156,2.045999526977539)"><path fill="rgb(5,19,29)" fill-opacity="1" d=" M10,0 C10,0 10,0 10,0 C10,5.519000053405762 5.519000053405762,10 0,10 C0,10 0,10 0,10 C-5.519000053405762,10 -10,5.519000053405762 -10,0 C-10,0 -10,0 -10,0 C-10,-5.519000053405762 -5.519000053405762,-10 0,-10 C0,-10 0,-10 0,-10 C5.519000053405762,-10 10,-5.519000053405762 10,0z"></path></g></g><g clip-path="url(#__lottie_element_64)" transform="matrix(1,0,0,1,-9889.74609375,-9892.798828125)" opacity="1" style="display: block;"><g mask="url(#__lottie_element_203)" style="display: block;"><g clip-path="url(#__lottie_element_200)" transform="matrix(1,0,0,1,0,0)" opacity="1"><g transform="matrix(1,0,0,1,10020.1845703125,10019.6103515625)" opacity="1" style="display: block;"><g opacity="1" transform="matrix(1,0,0,1,0,0)"><path fill="rgb(255,255,255)" fill-opacity="1" d=" M3.877000093460083,-0.0010000000474974513 C3.877000093460083,2.140000104904175 2.1419999599456787,3.875999927520752 0.0010000000474974513,3.875999927520752 C-2.1410000324249268,3.875999927520752 -3.877000093460083,2.140000104904175 -3.877000093460083,-0.0010000000474974513 C-3.877000093460083,-2.1419999599456787 -2.1410000324249268,-3.875999927520752 0.0010000000474974513,-3.875999927520752 C2.1419999599456787,-3.875999927520752 3.877000093460083,-2.1419999599456787 3.877000093460083,-0.0010000000474974513"></path></g></g><g transform="matrix(1,0,0,1,10015.810546875,10030.345703125)" opacity="1" style="display: block;"><g opacity="1" transform="matrix(1,0,0,1,0,0)"><path fill="rgb(255,255,255)" fill-opacity="1" d=" M1.5470000505447388,0 C1.5470000505447388,0.8539999723434448 0.8539999723434448,1.5460000038146973 -0.0010000000474974513,1.5460000038146973 C-0.8550000190734863,1.5460000038146973 -1.5470000505447388,0.8539999723434448 -1.5470000505447388,0 C-1.5470000505447388,-0.8539999723434448 -0.8550000190734863,-1.5460000038146973 -0.0010000000474974513,-1.5460000038146973 C0.8539999723434448,-1.5460000038146973 1.5470000505447388,-0.8539999723434448 1.5470000505447388,0"></path></g></g><g transform="matrix(1,0,0,1,10011.2021484375,10028.0263671875)" opacity="1" style="display: block;"><g opacity="1" transform="matrix(1,0,0,1,0,0)"><path fill="rgb(255,255,255)" fill-opacity="1" d=" M0.7730000019073486,0 C0.7730000019073486,0.4269999861717224 0.4269999861717224,0.7730000019073486 0,0.7730000019073486 C-0.4269999861717224,0.7730000019073486 -0.7730000019073486,0.4269999861717224 -0.7730000019073486,0 C-0.7730000019073486,-0.4269999861717224 -0.4269999861717224,-0.7730000019073486 0,-0.7730000019073486 C0.4269999861717224,-0.7730000019073486 0.7730000019073486,-0.4269999861717224 0.7730000019073486,0"></path></g></g><g transform="matrix(1,0,0,1,10067.0771484375,10019.6103515625)" opacity="1" style="display: block;"><g opacity="1" transform="matrix(1,0,0,1,0,0)"><path fill="rgb(255,255,255)" fill-opacity="1" d=" M3.877000093460083,-0.0010000000474974513 C3.877000093460083,2.140000104904175 2.140000104904175,3.875999927520752 -0.0010000000474974513,3.875999927520752 C-2.1419999599456787,3.875999927520752 -3.877000093460083,2.140000104904175 -3.877000093460083,-0.0010000000474974513 C-3.877000093460083,-2.1419999599456787 -2.1419999599456787,-3.875999927520752 -0.0010000000474974513,-3.875999927520752 C2.140000104904175,-3.875999927520752 3.877000093460083,-2.1419999599456787 3.877000093460083,-0.0010000000474974513"></path></g></g><g transform="matrix(1,0,0,1,10062.703125,10030.345703125)" opacity="1" style="display: block;"><g opacity="1" transform="matrix(1,0,0,1,0,0)"><path fill="rgb(255,255,255)" fill-opacity="1" d=" M1.5470000505447388,0 C1.5470000505447388,0.8539999723434448 0.8539999723434448,1.5460000038146973 -0.0010000000474974513,1.5460000038146973 C-0.8539999723434448,1.5460000038146973 -1.5470000505447388,0.8539999723434448 -1.5470000505447388,0 C-1.5470000505447388,-0.8539999723434448 -0.8539999723434448,-1.5460000038146973 -0.0010000000474974513,-1.5460000038146973 C0.8539999723434448,-1.5460000038146973 1.5470000505447388,-0.8539999723434448 1.5470000505447388,0"></path></g></g><g transform="matrix(1,0,0,1,10058.0927734375,10028.0263671875)" opacity="1" style="display: block;"><g opacity="1" transform="matrix(1,0,0,1,0,0)"><path fill="rgb(255,255,255)" fill-opacity="1" d=" M0.7739999890327454,0 C0.7739999890327454,0.4269999861717224 0.42800000309944153,0.7730000019073486 0.0010000000474974513,0.7730000019073486 C-0.4259999990463257,0.7730000019073486 -0.7739999890327454,0.4269999861717224 -0.7739999890327454,0 C-0.7739999890327454,-0.4269999861717224 -0.4259999990463257,-0.7730000019073486 0.0010000000474974513,-0.7730000019073486 C0.42800000309944153,-0.7730000019073486 0.7739999890327454,-0.4269999861717224 0.7739999890327454,0"></path></g></g></g></g></g><g transform="matrix(1,0,0,1,111.14237213134766,127.40451049804688)" opacity="1" style="display: block;"><g opacity="1" transform="matrix(1,0,0,1,-30.388999938964844,2.045999526977539)"><path fill="url(#__lottie_element_72)" fill-opacity="1" d=" M17.5,0 C17.5,0 17.5,0 17.5,0 C17.5,9.658249855041504 9.658249855041504,17.5 0,17.5 C0,17.5 0,17.5 0,17.5 C-9.658249855041504,17.5 -17.5,9.658249855041504 -17.5,0 C-17.5,0 -17.5,0 -17.5,0 C-17.5,-9.658249855041504 -9.658249855041504,-17.5 0,-17.5 C0,-17.5 0,-17.5 0,-17.5 C9.658249855041504,-17.5 17.5,-9.658249855041504 17.5,0z"></path></g></g><g transform="matrix(1,0,0,1,111.14237213134766,127.40451049804688)" opacity="1" style="display: block;"><g opacity="1" transform="matrix(1,0,0,1,-30.388999938964844,2.045999526977539)"><path fill="rgb(255,255,255)" fill-opacity="1" d=" M12.5,0 C12.5,0 12.5,0 12.5,0 C12.5,6.898749828338623 6.898749828338623,12.5 0,12.5 C0,12.5 0,12.5 0,12.5 C-6.898749828338623,12.5 -12.5,6.898749828338623 -12.5,0 C-12.5,0 -12.5,0 -12.5,0 C-12.5,-6.898749828338623 -6.898749828338623,-12.5 0,-12.5 C0,-12.5 0,-12.5 0,-12.5 C6.898749828338623,-12.5 12.5,-6.898749828338623 12.5,0z"></path></g></g><g transform="matrix(1,0,0,1,111.14237213134766,127.40451049804688)" opacity="1" style="display: block;"><g opacity="1" transform="matrix(1,0,0,1,-30.388999938964844,2.045999526977539)"><path fill="rgb(5,19,29)" fill-opacity="1" d=" M10,0 C10,0 10,0 10,0 C10,5.519000053405762 5.519000053405762,10 0,10 C0,10 0,10 0,10 C-5.519000053405762,10 -10,5.519000053405762 -10,0 C-10,0 -10,0 -10,0 C-10,-5.519000053405762 -5.519000053405762,-10 0,-10 C0,-10 0,-10 0,-10 C5.519000053405762,-10 10,-5.519000053405762 10,0z"></path></g></g><g transform="matrix(1,0,0,1,111.14237213134766,127.40451049804688)" opacity="1" style="display: block;"><g opacity="1" transform="matrix(1,0,0,1,-30.388999938964844,2.045999526977539)"><path fill="rgb(5,19,29)" fill-opacity="1" d=" M10,0 C10,5.5229997634887695 5.5229997634887695,10 0,10 C-5.5229997634887695,10 -10,5.5229997634887695 -10,0 C-10,-5.5229997634887695 -5.5229997634887695,-10 0,-10 C5.5229997634887695,-10 10,-5.5229997634887695 10,0"></path></g></g><g clip-path="url(#__lottie_element_85)" transform="matrix(1,0,0,1,-9936.572265625,-9892.791015625)" opacity="1" style="display: block;"><g mask="url(#__lottie_element_241)" style="display: block;"><g clip-path="url(#__lottie_element_238)" transform="matrix(1,0,0,1,0,0)" opacity="1"><g transform="matrix(1,0,0,1,10020.1845703125,10019.6103515625)" opacity="1" style="display: block;"><g opacity="1" transform="matrix(1,0,0,1,0,0)"><path fill="rgb(255,255,255)" fill-opacity="1" d=" M3.877000093460083,-0.0010000000474974513 C3.877000093460083,2.140000104904175 2.1419999599456787,3.875999927520752 0.0010000000474974513,3.875999927520752 C-2.1410000324249268,3.875999927520752 -3.877000093460083,2.140000104904175 -3.877000093460083,-0.0010000000474974513 C-3.877000093460083,-2.1419999599456787 -2.1410000324249268,-3.875999927520752 0.0010000000474974513,-3.875999927520752 C2.1419999599456787,-3.875999927520752 3.877000093460083,-2.1419999599456787 3.877000093460083,-0.0010000000474974513"></path></g></g><g transform="matrix(1,0,0,1,10015.810546875,10030.345703125)" opacity="1" style="display: block;"><g opacity="1" transform="matrix(1,0,0,1,0,0)"><path fill="rgb(255,255,255)" fill-opacity="1" d=" M1.5470000505447388,0 C1.5470000505447388,0.8539999723434448 0.8539999723434448,1.5460000038146973 -0.0010000000474974513,1.5460000038146973 C-0.8550000190734863,1.5460000038146973 -1.5470000505447388,0.8539999723434448 -1.5470000505447388,0 C-1.5470000505447388,-0.8539999723434448 -0.8550000190734863,-1.5460000038146973 -0.0010000000474974513,-1.5460000038146973 C0.8539999723434448,-1.5460000038146973 1.5470000505447388,-0.8539999723434448 1.5470000505447388,0"></path></g></g><g transform="matrix(1,0,0,1,10011.2021484375,10028.0263671875)" opacity="1" style="display: block;"><g opacity="1" transform="matrix(1,0,0,1,0,0)"><path fill="rgb(255,255,255)" fill-opacity="1" d=" M0.7730000019073486,0 C0.7730000019073486,0.4269999861717224 0.4269999861717224,0.7730000019073486 0,0.7730000019073486 C-0.4269999861717224,0.7730000019073486 -0.7730000019073486,0.4269999861717224 -0.7730000019073486,0 C-0.7730000019073486,-0.4269999861717224 -0.4269999861717224,-0.7730000019073486 0,-0.7730000019073486 C0.4269999861717224,-0.7730000019073486 0.7730000019073486,-0.4269999861717224 0.7730000019073486,0"></path></g></g><g transform="matrix(1,0,0,1,10067.0771484375,10019.6103515625)" opacity="1" style="display: block;"><g opacity="1" transform="matrix(1,0,0,1,0,0)"><path fill="rgb(255,255,255)" fill-opacity="1" d=" M3.877000093460083,-0.0010000000474974513 C3.877000093460083,2.140000104904175 2.140000104904175,3.875999927520752 -0.0010000000474974513,3.875999927520752 C-2.1419999599456787,3.875999927520752 -3.877000093460083,2.140000104904175 -3.877000093460083,-0.0010000000474974513 C-3.877000093460083,-2.1419999599456787 -2.1419999599456787,-3.875999927520752 -0.0010000000474974513,-3.875999927520752 C2.140000104904175,-3.875999927520752 3.877000093460083,-2.1419999599456787 3.877000093460083,-0.0010000000474974513"></path></g></g><g transform="matrix(1,0,0,1,10062.703125,10030.345703125)" opacity="1" style="display: block;"><g opacity="1" transform="matrix(1,0,0,1,0,0)"><path fill="rgb(255,255,255)" fill-opacity="1" d=" M1.5470000505447388,0 C1.5470000505447388,0.8539999723434448 0.8539999723434448,1.5460000038146973 -0.0010000000474974513,1.5460000038146973 C-0.8539999723434448,1.5460000038146973 -1.5470000505447388,0.8539999723434448 -1.5470000505447388,0 C-1.5470000505447388,-0.8539999723434448 -0.8539999723434448,-1.5460000038146973 -0.0010000000474974513,-1.5460000038146973 C0.8539999723434448,-1.5460000038146973 1.5470000505447388,-0.8539999723434448 1.5470000505447388,0"></path></g></g><g transform="matrix(1,0,0,1,10058.0927734375,10028.0263671875)" opacity="1" style="display: block;"><g opacity="1" transform="matrix(1,0,0,1,0,0)"><path fill="rgb(255,255,255)" fill-opacity="1" d=" M0.7739999890327454,0 C0.7739999890327454,0.4269999861717224 0.42800000309944153,0.7730000019073486 0.0010000000474974513,0.7730000019073486 C-0.4259999990463257,0.7730000019073486 -0.7739999890327454,0.4269999861717224 -0.7739999890327454,0 C-0.7739999890327454,-0.4269999861717224 -0.4259999990463257,-0.7730000019073486 0.0010000000474974513,-0.7730000019073486 C0.42800000309944153,-0.7730000019073486 0.7739999890327454,-0.4269999861717224 0.7739999890327454,0"></path></g></g></g></g></g><g transform="matrix(1,0,0,1,93.0563735961914,154.85250854492188)" opacity="1" style="display: block;"><g opacity="1" transform="matrix(1,0,0,1,15.543999671936035,4.493000030517578)"><path fill="rgb(255,255,255)" fill-opacity="1" d=" M15.194999694824219,-1.2400000095367432 C15.026000022888184,0.4230000078678131 13.640999794006348,1.7039999961853027 11.97700023651123,1.8650000095367432 C11.97700023651123,1.8650000095367432 -11.017000198364258,4.081999778747559 -11.017000198364258,4.081999778747559 C-12.680000305175781,4.243000030517578 -14.284000396728516,3.250999927520752 -14.769000053405762,1.6519999504089355 C-14.984000205993652,0.9419999718666077 -15.149999618530273,0.20600000023841858 -15.262999534606934,-0.546999990940094 C-15.293999671936035,-0.7559999823570251 -15.23900032043457,-0.9679999947547913 -15.109000205993652,-1.1339999437332153 C-14.979000091552734,-1.2999999523162842 -14.786999702453613,-1.4040000438690186 -14.57699966430664,-1.4249999523162842 C-14.57699966430664,-1.4249999523162842 14.432000160217285,-4.2230000495910645 14.432000160217285,-4.2230000495910645 C14.637999534606934,-4.243000030517578 14.843999862670898,-4.177000045776367 15.00100040435791,-4.039999961853027 C15.157999992370605,-3.9040000438690186 15.251999855041504,-3.7100000381469727 15.260000228881836,-3.502000093460083 C15.293999671936035,-2.73799991607666 15.270999908447266,-1.9819999933242798 15.194999694824219,-1.2400000095367432"></path></g></g><g transform="matrix(1,0,0,1,93.0563735961914,154.85250854492188)" opacity="1" style="display: block;"><g opacity="1" transform="matrix(1,0,0,1,15.805000305175781,10.454999923706055)"><path fill="url(#__lottie_element_97)" fill-opacity="1" d=" M14.9350004196167,-7.201000213623047 C14.201000213623047,-0.0729999989271164 8.534000396728516,5.7870001792907715 1.1299999952316284,6.49399995803833 C-6.171999931335449,7.201000213623047 -12.767000198364258,2.6730000972747803 -14.9350004196167,-4.0320000648498535 C-14.355999946594238,-2.5980000495910645 -12.850000381469727,-1.7259999513626099 -11.279000282287598,-1.8830000162124634 C-11.279000282287598,-1.8830000162124634 11.720000267028809,-4.0970001220703125 11.720000267028809,-4.0970001220703125 C13.383000373840332,-4.26200008392334 14.76099967956543,-5.538000106811523 14.9350004196167,-7.201000213623047"></path></g></g><g transform="matrix(1,0,0,1,111.14237213134766,127.40451049804688)" opacity="1" style="display: block;"><g opacity="1" transform="matrix(1,0,0,1,-2.2849998474121094,103.63600158691406)"><path fill="url(#__lottie_element_102)" fill-opacity="1" d=" M51.16699981689453,-21.29199981689453 C51.16699981689453,-21.08099937438965 51.16699981689453,-20.878999710083008 51.15800094604492,-20.68600082397461 C51.084999084472656,-18.756999969482422 50.63399887084961,-17.30500030517578 50.41299819946289,-16.652000427246094 C44.08399963378906,2.683000087738037 40.29100036621094,12.878000259399414 34.972999572753906,21.125999450683594 C34.05400085449219,22.549999237060547 33.09000015258789,23.917999267578125 32.051998138427734,25.260000228881836 C30.691999435424805,27.051000595092773 29.20400047302246,28.79599952697754 27.551000595092773,30.59600067138672 C23.87700080871582,34.59199905395508 18.320999145507812,36.4010009765625 16.52899932861328,37.025001525878906 C9.979999542236328,39.340999603271484 4.192999839782715,38.91699981689453 0.3449999988079071,38.95399856567383 C0.3449999988079071,38.95399856567383 -0.32600000500679016,38.95399856567383 -0.32600000500679016,38.95399856567383 C-4.184000015258789,38.91699981689453 -9.961000442504883,39.340999603271484 -16.510000228881836,37.025001525878906 C-18.301000595092773,36.4010009765625 -23.868000030517578,34.59199905395508 -27.533000946044922,30.59600067138672 C-37.637001037597656,19.601999282836914 -41.52199935913086,10.461999893188477 -50.39500045776367,-16.652000427246094 C-50.60599899291992,-17.277000427246094 -51.027000427246094,-18.628000259399414 -51.12799835205078,-20.437999725341797 C-51.15599822998047,-20.961000442504883 -51.16699981689453,-21.483999252319336 -51.138999938964844,-22.007999420166016 C-50.94599914550781,-25.25 -49.63100051879883,-28.42799949645996 -47.29800033569336,-31.329999923706055 C-43.303001403808594,-36.308998107910156 -37.130001068115234,-39.0369987487793 -30.746999740600586,-39.06399917602539 C-30.746999740600586,-39.06399917602539 0.014000000432133675,-39.19300079345703 0.014000000432133675,-39.19300079345703 C0.014000000432133675,-39.19300079345703 30.21500015258789,-39.3120002746582 30.21500015258789,-39.3120002746582 C36.736000061035156,-39.34000015258789 43.055999755859375,-36.60300064086914 47.198001861572266,-31.56100082397461 C49.20000076293945,-29.117000579833984 50.47800064086914,-26.479999542236328 50.94499969482422,-23.761999130249023 C51.0099983215332,-23.375999450683594 51.064998626708984,-22.981000900268555 51.10200119018555,-22.59600067138672 C51.138999938964844,-22.163999557495117 51.16699981689453,-21.732999801635742 51.16699981689453,-21.29199981689453"></path></g></g><g transform="matrix(1,0,0,1,111.14237213134766,127.40451049804688)" opacity="1" style="display: block;"><g opacity="1" transform="matrix(1,0,0,1,-27.851999282836914,72.96699523925781)"><path fill="url(#__lottie_element_106)" fill-opacity="1" d=" M25.576000213623047,-8.520000457763672 C25.576000213623047,-8.520000457763672 -5.184999942779541,-8.390999794006348 -5.184999942779541,-8.390999794006348 C-11.569000244140625,-8.36400032043457 -17.740999221801758,-5.635000228881836 -21.73699951171875,-0.6579999923706055 C-24.06999969482422,2.246000051498413 -25.382999420166016,5.422999858856201 -25.576000213623047,8.666000366210938 C-25.420000076293945,5.340000152587891 -24.051000595092773,2.0799999237060547 -21.617000579833984,-0.8870000243186951 C-17.483999252319336,-5.929999828338623 -11.154999732971191,-8.666000366210938 -4.633999824523926,-8.638999938964844 C-4.633999824523926,-8.638999938964844 25.576000213623047,-8.520000457763672 25.576000213623047,-8.520000457763672"></path></g></g><g transform="matrix(1,0,0,1,111.14237213134766,127.40451049804688)" opacity="1" style="display: block;"><g opacity="1" transform="matrix(1,0,0,1,40.01900100708008,98.80899810791016)"><path fill="url(#__lottie_element_111)" fill-opacity="1" d=" M-11.720000267028809,10.956999778747559 C-12.168999671936035,-12.904000282287598 -15.39900016784668,-17.621999740600586 -10.63700008392334,-23.298999786376953 C-10.09000015258789,-23.951000213623047 -7.296000003814697,-27.280000686645508 -2.703000068664551,-28.1299991607666 C0.9570000171661377,-28.80699920654297 4.2779998779296875,-27.634000778198242 5.848999977111816,-26.743000030517578 C15.39799976348877,-21.333999633789062 12.564000129699707,2.117000102996826 6.275000095367432,16.92099952697754 C4.9039998054504395,20.148000717163086 1.225000023841858,28.805999755859375 -3.259000062942505,28.600000381469727 C-5.0960001945495605,28.514999389648438 -6.449999809265137,26.97100067138672 -7.4019999504089355,25.85700035095215 C-11.607000350952148,20.933000564575195 -11.652999877929688,14.555000305175781 -11.720000267028809,10.956999778747559"></path></g></g><g transform="matrix(1,0,0,1,111.14237213134766,127.40451049804688)" opacity="1" style="display: block;"><g opacity="1" transform="matrix(1,0,0,1,26.781002044677734,102.22699737548828)"><path fill="url(#__lottie_element_115)" fill-opacity="1" d=" M5.9070000648498535,22.535999298095703 C4.98799991607666,23.959999084472656 4.0229997634887695,25.327999114990234 2.984999895095825,26.670000076293945 C2.6540000438690186,26.329999923706055 2.359999895095825,25.989999771118164 2.0940001010894775,25.67799949645996 C-2.11299991607666,20.7549991607666 -2.1579999923706055,14.380000114440918 -2.2230000495910645,10.779000282287598 C-2.6730000972747803,-13.083999633789062 -5.9070000648498535,-17.79599952697754 -1.1390000581741333,-23.472999572753906 C-0.7900000214576721,-23.895000457763672 0.4869999885559082,-25.410999298095703 2.562000036239624,-26.670000076293945 C-2.140000104904175,-21.011999130249023 1.065000057220459,-16.253000259399414 1.5149999856948853,7.5370001792907715 C1.5800000429153442,11.137999534606934 1.6349999904632568,17.511999130249023 5.833000183105469,22.444000244140625 C5.860000133514404,22.472000122070312 5.888000011444092,22.5 5.9070000648498535,22.535999298095703"></path></g></g><g transform="matrix(1,0,0,1,111.14237213134766,127.40451049804688)" opacity="1" style="display: block;"><g opacity="1" transform="matrix(1,0,0,1,46.3440055847168,84.1449966430664)"><path fill="rgb(255,255,255)" fill-opacity="1" d=" M-0.19099999964237213,5.751999855041504 C-0.32600000500679016,3.187999963760376 -0.8069999814033508,1.3020000457763672 -1.7690000534057617,-2.4700000286102295 C-3.0269999504089355,-7.4029998779296875 -4.605000019073486,-9.809000015258789 -3.5799999237060547,-10.76099967956543 C-2.9130001068115234,-11.380999565124512 -1.5980000495910645,-10.961999893188477 -1.3009999990463257,-10.866999626159668 C3.2079999446868896,-9.428999900817871 4.605000019073486,-0.9670000076293945 4.4120001792907715,4.328000068664551 C4.291999816894531,7.570000171661377 3.5,11.194999694824219 2.312999963760376,11.355999946594238 C2.125,11.380999565124512 1.659999966621399,11.355999946594238 1.3270000219345093,11.062000274658203 C0.0010000000474974513,9.890000343322754 -0.08799999952316284,7.699999809265137 -0.19099999964237213,5.751999855041504"></path></g></g><g transform="matrix(1,0,0,1,111.14237213134766,127.40451049804688)" opacity="1" style="display: block;"><g opacity="1" transform="matrix(1,0,0,1,48.31400680541992,98.94499969482422)"><path fill="rgb(255,255,255)" fill-opacity="1" d=" M0.9359999895095825,-0.0010000000474974513 C0.9359999895095825,0.515999972820282 0.5170000195503235,0.9369999766349792 0,0.9369999766349792 C-0.5170000195503235,0.9369999766349792 -0.9359999895095825,0.515999972820282 -0.9359999895095825,-0.0010000000474974513 C-0.9359999895095825,-0.5180000066757202 -0.5170000195503235,-0.9369999766349792 0,-0.9369999766349792 C0.5170000195503235,-0.9369999766349792 0.9359999895095825,-0.5180000066757202 0.9359999895095825,-0.0010000000474974513"></path></g></g><g transform="matrix(1.2466355562210083,0,0,1.2466355562210083,46.32296371459961,277.8285217285156)" opacity="1" style="display: block;"><g opacity="1" transform="matrix(2.450000047683716,0,0,1,49.077999114990234,20.033000946044922)"><path fill="url(#__lottie_element_126)" fill-opacity="1" d=" M0,-20 C11.038000106811523,-20 20,-11.038000106811523 20,0 C20,11.038000106811523 11.038000106811523,20 0,20 C-11.038000106811523,20 -20,11.038000106811523 -20,0 C-20,-11.038000106811523 -11.038000106811523,-20 0,-20z"></path></g></g></g></svg>