<?xml version="1.0" encoding="UTF-8"?>
<svg id="Capa_1" xmlns="http://www.w3.org/2000/svg" version="1.1" xmlns:xlink="http://www.w3.org/1999/xlink" viewBox="0 0 256 256">
  <!-- Generator: Adobe Illustrator 29.3.0, SVG Export Plug-In . SVG Version: 2.1.0 Build 146)  -->
  <defs>
    <style>
      .st0 {
        fill: none;
        stroke: #b8bece;
        stroke-miterlimit: 10;
        stroke-width: 15px;
      }
    </style>
  </defs>
  <path class="st0" d="M121.8,10.6c-13.3,2.9-23.3,15.2-23.3,28.8s4.6,17.9,11.8,23.3l3,2.2v33.4h-16.4c-18,0-23.3.4-31,2.3-30.8,7.8-52.8,33.5-55.6,65.3-3.6,39.5,25.8,75.2,65.5,79.5,6.5.7,97.9.7,104.4,0,26.7-2.9,50.2-20.5,60.2-45.2,17-41.9-6.6-88.6-50.3-99.6-7.6-1.9-12.9-2.3-31-2.3h-16.4v-33.4l3-2.2c7.2-5.4,11.8-14.5,11.8-23.3s-.3-4-.7-5.9c-3.3-16-19-26.3-35-22.9ZM179.8,128.6c9.2,1.6,16.9,5.6,23.7,12.4,6.8,6.8,10.8,14.5,12.4,23.7,1.3,7.6.6,15.4-2.1,22.9-4.2,11.6-14.6,22-26.2,26.2-7.8,2.8-7.1,2.8-59.6,2.8s-51.9,0-59.7-2.8c-11.6-4.2-22-14.6-26.2-26.2-9.3-25.6,6-53.1,32.8-58.8,3.6-.7,7.5-.8,52.4-.8,41.1,0,49.2,0,52.5.6Z"/>
  <path class="st0" d="M80.2,157.9c-2.2.6-6.1,2.9-7.4,4.3-2.6,3-3.6,5.9-3.6,9.8s0,4.1,1.5,6.8c2.5,5.2,7.1,7.9,13,8,2.8,0,4-.2,6-1.2,5.4-2.5,8.5-7.4,8.5-13.3s-2.8-10.5-7.8-13c-3.1-1.6-7.4-2.2-10.2-1.4Z"/>
  <path class="st0" d="M168.8,157.9c-2.2.6-6.1,2.9-7.4,4.3-2.6,3-3.6,5.9-3.6,9.8s.1,4.1,1.5,6.8c2.5,5.2,7.1,7.9,13,8,2.8,0,4-.2,6-1.2,5.4-2.5,8.5-7.4,8.5-13.3s-2.8-10.5-7.8-13c-3.1-1.6-7.4-2.2-10.2-1.4Z"/>
</svg>