<?xml version="1.0" encoding="utf-8"?>
<!-- Generator: Adobe Illustrator 28.2.0, SVG Export Plug-In . SVG Version: 6.00 Build 0)  -->
<svg version="1.1" xmlns="http://www.w3.org/2000/svg" xmlns:xlink="http://www.w3.org/1999/xlink" x="0px" y="0px"
	 viewBox="0 0 95.5 85" style="enable-background:new 0 0 95.5 85;" xml:space="preserve">
<style type="text/css">
	.st0{fill:#FFFFFF;}
	.st1{fill:#DBDBDB;}
	.st2{fill:#FFFFFF;stroke:#DDDDDD;stroke-miterlimit:10;}
	.st3{fill:#FF0000;}
	.st4{fill:#ED1C24;}
	.st5{fill:#C1272D;}
	.st6{fill:#4C4846;}
	.st7{opacity:0.32;fill:#FFFFFF;}
</style>
<g id="BACKGROUND">
	<rect x="-116.7" y="-75" class="st0" width="500" height="500"/>
</g>
<g id="OBJECTS">
	<g>
		<path class="st1" d="M84.7,12.4h-14V9.2c0-1.8-1.4-3.2-3.2-3.2c-1.8,0-3.2,1.4-3.2,3.2v3.3H30.5V9.4c0-1.8-1.4-3.2-3.2-3.2
			c-1.8,0-3.2,1.4-3.2,3.2v3.1H10.5c-4.7,0-8.6,3.2-8.6,7.2v0.6v13.8v41.6c0,4.2,3.8,7.6,8.6,7.6h74.1c4.7,0,8.6-3.4,8.6-7.6V33.9
			V20.2v-0.6C93.2,15.6,89.4,12.4,84.7,12.4z"/>
		<g>
			<path class="st2" d="M84.7,8.6H70.4V5.5h-5.7v3.1H30.5V5.5h-5.7v3.1H10.5C5.8,8.6,2,12,2,16.2v55.4c0,4.2,3.8,7.6,8.6,7.6h74.1
				c4.7,0,8.6-3.4,8.6-7.6V16.2C93.2,12,89.4,8.6,84.7,8.6z"/>
			<path class="st3" d="M84.7,8.4H70.4h-2.9h-57C5.8,8.4,2,11.6,2,15.6v14.3c0,0.4,0.2,0.9,0.4,1.3h5.3h79.8h5.3
				c0.3-0.4,0.4-0.8,0.4-1.3V15.6C93.2,11.6,89.4,8.4,84.7,8.4z M64.7,13.2h2.9h2.9v2.4c0,1.3-1.3,2.4-2.9,2.4
				c-1.6,0-2.9-1.1-2.9-2.4V13.2z M30.5,13.2v2.4c0,1.3-1.3,2.4-2.8,2.4c-1.6,0-2.9-1.1-2.9-2.4v-2.4H30.5z"/>
			<path class="st4" d="M80.3,11.1H67.7h-2.5H14.9c-4.2,0-7.6,2.3-7.6,5v10.1c0,0.3,0.1,0.6,0.4,0.9h4.6h70.5h4.7
				c0.2-0.3,0.4-0.6,0.4-0.9V16.1C87.9,13.4,84.5,11.1,80.3,11.1z"/>
			<path class="st5" d="M32.4,16.2c0,2.8-2.3,5.1-5.1,5.1c-2.8,0-5.1-2.3-5.1-5.1s2.3-5.1,5.1-5.1C30.2,11.1,32.4,13.4,32.4,16.2z"
				/>
			<path class="st5" d="M72.6,15.9c0,2.8-2.3,5.1-5.1,5.1c-2.8,0-5.1-2.3-5.1-5.1c0-2.8,2.3-5.1,5.1-5.1
				C70.3,10.9,72.6,13.1,72.6,15.9z"/>
			<path class="st6" d="M30.5,15.1c0,1.8-1.4,3.2-3.2,3.2l0,0c-1.8,0-3.2-1.4-3.2-3.2V5.4c0-1.8,1.4-3.2,3.2-3.2l0,0
				c1.8,0,3.2,1.4,3.2,3.2V15.1z"/>
			<path class="st6" d="M70.7,14.9c0,1.8-1.4,3.2-3.2,3.2l0,0c-1.8,0-3.2-1.4-3.2-3.2V5.2c0-1.8,1.4-3.2,3.2-3.2l0,0
				c1.8,0,3.2,1.4,3.2,3.2V14.9z"/>
		</g>
		<path class="st7" d="M28.6,15.6L28.6,15.6c-0.5,0-0.9-0.4-0.9-0.9V5.8c0-0.5,0.4-0.9,0.9-0.9l0,0c0.5,0,0.9,0.4,0.9,0.9v8.8
			C29.5,15.2,29.1,15.6,28.6,15.6z"/>
		<path class="st7" d="M68.5,15L68.5,15c-0.5,0-0.9-0.4-0.9-0.9V5.3c0-0.5,0.4-0.9,0.9-0.9l0,0c0.5,0,0.9,0.4,0.9,0.9v8.8
			C69.5,14.6,69,15,68.5,15z"/>
	</g>
</g>
<g id="DESIGNED_BY_FREEPIK">
</g>
</svg>
