<?xml version="1.0" encoding="utf-8"?>
<!-- Generator: Adobe Illustrator 27.5.0, SVG Export Plug-In . SVG Version: 6.00 Build 0)  -->
<svg version="1.1" id="Layer_1" xmlns="http://www.w3.org/2000/svg" xmlns:xlink="http://www.w3.org/1999/xlink" x="0px" y="0px"
	 viewBox="0 0 741 130.4" style="enable-background:new 0 0 741 130.4;" xml:space="preserve">
<style type="text/css">
	.st0{fill:#58ACE9;}
	.st1{fill:#FFFFFF;stroke:#FFFFFF;stroke-width:3;stroke-miterlimit:10;}
	.st2{fill:#5EB7F8;stroke:#5EB7F8;stroke-width:3;stroke-miterlimit:10;}
	.st3{fill:#58ACE9;stroke:#5EB7F8;stroke-miterlimit:10;}
	.st4{fill:#717171;stroke:#717171;stroke-miterlimit:10;}
</style>
<g>
	<g>
		<path class="st0" d="M112.5,72.6l-4.9,13.8c-1,2.9-3.5,5.1-6.5,5.1c-3.7,0-6.5-3.2-6.5-6.6c0-0.6,0.2-1.9,0.8-3.6l4.3-12.8h-3
			c-1.1,0-2.1-0.6-2.7-1.4c-0.1-0.2-0.2-0.4-0.3-0.6L91.2,60l-2.5,6.3c-0.5,1.2-1.6,2-2.9,2h-8.4L72.8,73c-0.6,0.6-1.4,1-2.3,1
			c-0.7,0-1.4-0.2-2-0.7s-1.1-1.3-1.2-2.1l-1.8-12.6l-3.8,36.6c-0.1,1.6-1.5,2.9-3.2,2.9c-1.4,0-2.7-1-3-2.4v-0.1L50.3,71l-2.2,9.6
			c-0.4,1.7-2,2.7-3.7,2.4c-0.3-0.1-0.5-0.1-0.8-0.3c-0.6-0.3-1-0.7-1.3-1.2l-8.9-14.1H19.3c0.5,1,1.2,2.5,2.1,4.3
			c8.1,15.3,18.2,24.6,24.9,30.7c13.1,11.7,26.4,19.5,37.3,24.7c22.1-11.3,46.1-28.2,59.4-50.3l-1.5-4.2H112.5z"/>
		<path class="st0" d="M92.8,17.7l-9.2,9.8l-9.2-9.8c-31-33.3-66-5.7-59.8,33.5c0.5,3.4,1.3,6.7,2.4,10h18.2c1,0,2,0.5,2.6,1.4
			c0,0,0,0.1,0.1,0.1l5.8,9.3l3.7-16c0.2-1.2,1.2-2.1,2.3-2.4c0.8-0.2,1.7-0.1,2.4,0.4c0.7,0.4,1.2,1.2,1.4,2l4.1,19L62,32.2
			c0.1-1.4,1.2-2.6,2.5-2.8c0.2,0,0.4-0.1,0.6-0.1c1.5,0,2.8,1.1,3.1,2.5c0,0.1,0,0.1,0,0.2l4.5,32.1l1.1-1.1
			c0.6-0.6,1.4-0.9,2.2-0.9h7.6l4.6-11.7c0.3-0.8,0.9-1.5,1.8-1.8c0.8-0.3,1.8-0.3,2.6,0.1c0.7,0.4,1.3,1,1.6,1.7l4.7,11.9h2.9
			l12.3-36.6c1-2.9,3.3-5,6.3-5h12.9c2.9,0,5.5,2.1,6.4,4.9l11.2,33.3c0.7-2.5,1.3-5,1.7-7.6C158.9,12,124-15.6,92.8,17.7z"/>
	</g>
	<polygon class="st0" points="125.9,32.8 116.4,60.6 137.6,60.6 128.1,32.8 	"/>
	<circle class="st0" cx="8.3" cy="65.3" r="5.5"/>
	<path class="st1" d="M145.6,65.4c0-1.7-1.5-3.1-3.2-3.1h-40.6l-2.1,6.2h42.7C144.2,68.5,145.6,67.1,145.6,65.4z"/>
	<path class="st1" d="M146.6,86.6l-2.7-7.5c3.4-5.6,6.1-11.5,7.9-17.6l-0.9-2.6c-1.8,6.3-4.5,12.3-7.9,17.9l3.5,9.8
		c1,2.9,3.4,4.9,6.4,4.9c0,0,0,0,0.1,0C150,91.5,147.6,89.5,146.6,86.6z"/>
	<path class="st1" d="M139.7,25.6c-0.9-2.8-3.5-4.9-6.4-4.9h-12.9c-3,0-5.3,2.1-6.3,5l-12.3,36.6h40.6c1.7,0,3.2,1.4,3.2,3.1
		s-1.4,3.1-3.2,3.1H99.7l-4.3,12.8c-0.6,1.7-0.8,3-0.8,3.6c0,3.4,2.8,6.6,6.5,6.6c3,0,5.5-2.2,6.5-5.1l4.9-13.8h29l1.5,4.2
		c3.4-5.6,6.1-11.6,7.9-17.9L139.7,25.6z M116.4,60.6l9.5-27.8h2.2l9.5,27.8H116.4z"/>
	<path class="st2" d="M151.8,61.4C151.8,61.4,151.8,61.4,151.8,61.4l6.7,20c0.6,1.4,0.9,3,0.9,3.6c0,3.5-2.7,6.5-6.4,6.5
		c0,0,0,0,0,0c3.8,0,6.5-3,6.5-6.5c-0.1-0.6-0.4-2.2-0.9-3.6L151.8,61.4z"/>
	<path class="st2" d="M159.4,85c0-0.6-0.3-2.2-0.9-3.6l-6.7-19.9c-1.8,6.2-4.5,12.1-7.9,17.6l2.7,7.5c1,2.9,3.4,4.9,6.4,4.9
		C156.7,91.5,159.4,88.5,159.4,85z"/>
</g>
<g id="Font">
	<g>
		<path class="st3" d="M176.9,87.9c0,3.4-2.8,6.3-6.1,6.3s-6.1-3-6.1-6.3V65.3c0-12.3,9.7-22.4,21.7-22.4c8.3,0,14.9,4.4,14.9,9
			c0,3.3-2.5,5.6-5.5,5.6c-3.9,0-4.4-3.1-9.4-3.1c-5.4,0-9.4,4.2-9.4,9.6L176.9,87.9L176.9,87.9z"/>
		<path class="st3" d="M231.3,93.3h-4.6c-7.4,0-13.2-5.5-13.2-13.3V55.5h-3.3c-3.1,0-5.6-2.6-5.6-5.8c0-3.1,2.5-5.8,5.6-5.8h3.3V37
			c0-3.5,2.9-6.2,6.1-6.2c3.1,0,6,2.8,6,6.2v6.9h6.8c3,0,5.6,2.5,5.6,5.8s-2.6,5.8-5.6,5.8h-6.8v24.2c0,0.9,0.9,1.9,1.8,1.9h3.8
			c3.1,0,5.6,2.6,5.6,5.8S234.5,93.3,231.3,93.3z"/>
		<path class="st3" d="M256.7,73.3c1,5.3,6.8,9.7,12.4,9.7c4.5,0,7.2-1.1,8.7-2.1c1.3-0.9,2.8-1.5,4.4-1.5c3.1,0,5.6,2.4,5.6,5.5
			c0,2.7-1.4,4.3-3.2,5.6c-1.7,1.1-6.4,3.7-15.4,3.7c-14.2,0-25.1-11.6-25.1-25.8S255.3,43,268.7,43c13.5,0,23.6,11.7,23.6,23.2
			c0,4.2-3,7.1-7.1,7.1C285.1,73.3,256.7,73.3,256.7,73.3z M256.7,63.9h24.1c-0.4-4.5-5.4-9.9-12.1-9.9
			C262.5,54,257.3,59.2,256.7,63.9z"/>
		<path class="st3" d="M383.9,87.9c0,3.4-2.7,6.3-6,6.3s-6.1-3-6.1-6.3V66.2c0-7.2-4.8-11.8-11.2-11.8c-6.1,0-11.1,4.4-11.1,11.8
			v21.7c0,3.4-2.7,6.3-6,6.3s-6.1-3-6.1-6.3V66.2c0-7.3-5.1-11.8-11.1-11.8c-6.3,0-11.2,4.4-11.2,11.8v21.7c0,3.4-2.8,6.3-6.1,6.3
			c-3.3,0-6.1-3-6.1-6.3V67.3c0-14.5,10.9-24.4,23.4-24.4c6.6,0,12.9,3,17.2,7.8c4.4-5,10.4-7.8,17.2-7.8c12.6,0,23.3,9.8,23.3,24.4
			L383.9,87.9L383.9,87.9z"/>
		<path class="st3" d="M404.7,23.1c4.1,0,7.4,3.5,7.4,7.7s-3.3,7.7-7.4,7.7s-7.4-3.5-7.4-7.7C397.2,26.6,400.6,23.1,404.7,23.1z
			 M410.8,87.9c0,3.4-2.8,6.3-6.1,6.3c-3.3,0-6.1-3-6.1-6.3V50.2c0-3.4,2.8-6.3,6.1-6.3c3.3,0,6.1,3,6.1,6.3V87.9z"/>
		<path class="st3" d="M451.6,79c0-7.6-27.6-2.1-27.6-21c0-8.1,7.8-15,19.2-15c12,0,18.9,5.4,18.9,9.9c0,2.7-1.7,5.5-5.2,5.5
			c-2.1,0-4-1.9-5.3-2.7c-2.1-1.3-4.9-2.4-8.4-2.4c-5.2,0-7.7,2.3-7.7,4.6c0,7.7,28.2,2.6,28.2,20.6c0,9.8-9.7,15.7-20.4,15.7
			c-11.5,0-19.6-5.4-19.6-10.1c0-3.5,2.5-5.8,5.5-5.8c4.2,0,6.1,5.3,14.2,5.3C448.2,83.7,451.6,81.8,451.6,79z"/>
		<path class="st3" d="M522.1,87.6c0,3.6-3.1,6.6-6.4,6.6c-3.1,0-5.6-3-5.6-5.2c-2.2,2.2-7.4,5.2-13.4,5.2
			c-13.3,0-24.1-11.5-24.1-25.8s10.9-25.6,24.1-25.6c6,0,11.2,3.1,13.4,5.2c0-2.3,2.5-5.2,5.6-5.2c3.2,0,6.4,3.1,6.4,6.6V87.6z
			 M497.7,54.3c-7.5,0-13.4,6.5-13.4,14.1s5.7,14.3,13.4,14.3s13.2-6.2,13.2-14.3S505.3,54.3,497.7,54.3z"/>
	</g>
	<g>
		<path class="st4" d="M567.4,44.2v9.2h21.8c5.9,0,8.6,4.1,8.6,7.9s-2.7,7.8-8.6,7.8h-21.8v11h26.8c5.9,0,8.5,4.3,8.5,8.1
			s-2.6,8.1-8.5,8.1h-35.4c-5.5,0-8.5-3.5-8.5-8.6v-51c0-4.7,3-8.4,8.5-8.4h35.4c5.9,0,8.5,4.3,8.5,8.1s-2.6,8-8.5,8h-26.8V44.2z"/>
		<path class="st4" d="M615.9,36.5c0-4.7,3-8.4,8.5-8.4h19c15,0,25.2,10.6,25.2,24c0,13.1-10.2,23.9-25.2,23.9H633v12.5
			c0,4.7-3.7,8.5-8.5,8.5c-4.9,0-8.6-3.9-8.6-8.5V36.5z M633.1,60h10c5.1,0,8.6-3.5,8.6-7.9c0-4.6-3.5-8-8.6-8h-10V60z"/>
		<path class="st4" d="M709.9,75.6c0-9.7-33.8-3.1-33.8-27.6c0-11.3,9.5-20.8,24.5-20.8c15.2,0,24.7,7.4,24.7,14.5
			c0,3.5-3.1,7.4-8.2,7.4c-6.9,0-8.8-6.5-17.2-6.5c-4.2,0-6.8,1.8-6.8,4.7c0,8.4,34.3,4.1,34.3,27.8c0,13.2-11.7,22.2-26.4,22.2
			c-13.7,0-25.9-8-25.9-15.2c0-4.8,3.3-8.4,8.2-8.4c7,0,6.8,7.9,18,7.9C705.9,81.5,709.9,79.4,709.9,75.6z"/>
	</g>
</g>
</svg>
