<?xml version="1.0" encoding="utf-8"?>
<!-- Generator: Adobe Illustrator 27.6.1, SVG Export Plug-In . SVG Version: 6.00 Build 0)  -->
<svg version="1.1" xmlns="http://www.w3.org/2000/svg" xmlns:xlink="http://www.w3.org/1999/xlink" x="0px" y="0px"
	 viewBox="0 0 538.5 127.4" style="enable-background:new 0 0 538.5 127.4;" xml:space="preserve">
<style type="text/css">
	.st0{fill:#5EB7F8;}
	.st1{fill:#5EB7F8;stroke:#5EB7F8;stroke-miterlimit:10;}
	.st2{fill:#6CB3E2;}
	.st3{fill:#FFFFFF;}
	.st4{fill:#057BC2;}
</style>
<g id="Layer_2">
	<path class="st0" d="M142.9,65.3C143,65.3,143,65.3,142.9,65.3l-0.4-0.1c6.9-10.6,9.2-22.1,6.4-32.8c-3.1-11.7-12-20.6-23.8-23.8
		c-12.2-3.3-25.5,0.2-37.3,9.6C76.4,9.1,63.4,5.8,51.3,9c-11.7,3.2-21,12.4-24.1,24.1c-3.7,14,1.3,29.3,14,41.9l46.7,46.7l22.4-22.4
		c0.1-0.1,0.1-0.1,0.2-0.2l23.7-23.7c0.1-0.1,0.3-0.2,0.4-0.4c3.1-3.1,5.7-6.3,7.9-9.7C142.5,65.3,142.9,65.3,142.9,65.3z"/>
</g>
<g id="Layer_1">
	<g>
		<path class="st1" d="M172.2,89.8c0,3.7-2.9,6.9-6.3,6.9c-3.5,0-6.3-3.2-6.3-6.9V65c0-13.4,10.1-24.6,22.5-24.6
			c8.6,0,15.4,4.9,15.4,9.8c0,3.6-2.6,6.2-5.7,6.2c-4.1,0-4.5-3.4-9.8-3.4c-5.6,0-9.8,4.7-9.8,10.5V89.8z"/>
		<path class="st1" d="M228.6,95.6h-4.7c-7.7,0-13.6-6.1-13.6-14.6V54.3h-3.5c-3.3,0-5.8-2.8-5.8-6.4c0-3.4,2.6-6.4,5.8-6.4h3.5
			v-7.6c0-3.8,3-6.8,6.3-6.8c3.3,0,6.2,3,6.2,6.8v7.6h7c3.2,0,5.8,2.7,5.8,6.4c0,3.6-2.7,6.4-5.8,6.4h-7v26.5c0,1,0.9,2.1,1.9,2.1h4
			c3.3,0,5.8,2.8,5.8,6.4S231.9,95.6,228.6,95.6z"/>
		<path class="st1" d="M254.9,73.8c1,5.8,7,10.6,12.9,10.6c4.6,0,7.5-1.2,9-2.3c1.4-1,2.9-1.6,4.5-1.6c3.3,0,5.8,2.6,5.8,6.1
			c0,2.9-1.5,4.8-3.4,6.2c-1.8,1.2-6.6,4-16,4c-14.7,0-26-12.7-26-28.2s11.8-27.9,25.6-27.9c14,0,24.5,12.8,24.5,25.4
			c0,4.7-3.2,7.8-7.4,7.8C284.4,73.8,254.9,73.8,254.9,73.8z M254.9,63.5h25c-0.4-5-5.6-10.8-12.6-10.8
			C260.9,52.7,255.6,58.3,254.9,63.5z"/>
		<path class="st1" d="M386.9,89.8c0,3.7-2.8,6.9-6.2,6.9s-6.3-3.2-6.3-6.9V66c0-7.9-4.9-12.9-11.7-12.9c-6.3,0-11.6,4.9-11.6,12.9
			v23.8c0,3.7-2.8,6.9-6.2,6.9s-6.3-3.2-6.3-6.9V66c0-8-5.2-12.9-11.5-12.9c-6.5,0-11.7,4.9-11.7,12.9v23.8c0,3.7-2.9,6.9-6.3,6.9
			s-6.3-3.2-6.3-6.9V67.2c0-15.9,11.3-26.7,24.3-26.7c6.8,0,13.3,3.2,17.8,8.5c4.5-5.5,10.8-8.5,17.8-8.5c13,0,24.2,10.7,24.2,26.7
			V89.8z"/>
		<path class="st1" d="M408.5,18.8c4.3,0,7.7,3.8,7.7,8.4s-3.5,8.4-7.7,8.4c-4.3,0-7.7-3.8-7.7-8.4S404.2,18.8,408.5,18.8z
			 M414.8,89.8c0,3.7-2.9,6.9-6.3,6.9c-3.5,0-6.3-3.2-6.3-6.9V48.4c0-3.7,2.9-6.9,6.3-6.9c3.5,0,6.3,3.2,6.3,6.9V89.8z"/>
		<path class="st1" d="M457.2,80c0-8.3-28.7-2.3-28.7-23c0-8.9,8.1-16.4,19.9-16.4c12.5,0,19.6,5.9,19.6,10.8c0,2.9-1.8,6.1-5.4,6.1
			c-2.2,0-4.2-2.1-5.5-2.9c-2.2-1.4-5-2.6-8.7-2.6c-5.4,0-8,2.5-8,5.1c0,8.4,29.3,2.8,29.3,22.5c0,10.7-10.1,17.2-21.2,17.2
			c-12,0-20.4-5.9-20.4-11c0-3.8,2.6-6.4,5.7-6.4c4.3,0,6.3,5.8,14.7,5.8C453.6,85.1,457.2,83.1,457.2,80z"/>
		<path class="st1" d="M530.4,89.4c0,3.9-3.3,7.2-6.6,7.2c-3.3,0-5.8-3.2-5.8-5.7c-2.3,2.4-7.7,5.7-13.9,5.7
			c-13.8,0-25-12.5-25-28.2s11.3-28,25-28c6.2,0,11.7,3.4,13.9,5.7c0-2.5,2.6-5.7,5.8-5.7c3.4,0,6.6,3.4,6.6,7.2V89.4z M504.9,53
			c-7.8,0-13.9,7.1-13.9,15.5s5.9,15.7,13.9,15.7s13.6-6.8,13.6-15.7S512.9,53,504.9,53z"/>
	</g>
	<g>
		<path class="st0" d="M149.8,89.4l-7.4-24c0,0-0.1,0-0.1,0c-2.2,3.4-4.8,6.6-7.9,9.7c-0.1,0.2-0.3,0.3-0.4,0.4l-3.2,3.2h0l5.5,17.1
			c1.1,3.5,3.8,5.9,7.1,5.9c4.2,0,7.2-3.7,7.2-7.9C150.6,93.1,150.3,91.2,149.8,89.4z"/>
		<path class="st2" d="M142.3,65.3L142.3,65.3C142.3,65.2,142.3,65.2,142.3,65.3L142.3,65.3z"/>
		<path class="st3" d="M134.4,75c3.1-3.1,5.7-6.3,7.9-9.7c0,0,0.1,0,0.1,0l0-0.1l0,0c0,0,0,0,0,0l-13.4-43.5c-1-3.4-3.9-5.9-7.1-5.9
			h-14.3c-3.4,0-5.9,2.5-7,6L79.7,89.3c-0.7,2.1-0.9,3.7-0.9,4.4c0,4.1,3.1,8,7.2,8c3.3,0,6.1-2.7,7.2-6.2l5.4-16.8h32.2l3.2-3.2
			C134.1,75.3,134.3,75.2,134.4,75z M103,64.2l10.5-33.7h2.4l10.5,33.7H103z"/>
	</g>
	<path class="st4" d="M125.1,58.8h-14.5c-1.5,0-2.9,0.8-3.6,1.9l-5.1,8.7L96.1,53c-0.6-1.6-2.1-2.6-3.9-2.6c-1.8,0-3.3,1-3.9,2.6
		l-5.6,17.2l-7.6-24.4c-0.5-1.5-1.8-2.5-3.5-2.7c-1.7-0.1-3.4,0.6-4.1,2.1l-7.1,13.6l-11.2-0.6c-1.5-0.1-2.8,1.1-2.9,2.6
		c-0.1,1.5,1.1,2.8,2.6,2.9L61,64.5h0.1c1.6,0,3-0.8,3.7-2.1l6.1-11.6l7.8,25.4c0.5,1.6,2.1,2.7,3.9,2.7c0,0,0,0,0.1,0
		c1.8,0,3.4-1,3.9-2.6l5.7-17.5l5.5,15.3c0.5,1.4,1.8,2.4,3.5,2.6c1.7,0.1,3.3-0.6,4-1.9l6-10.4h13.8c1.5,0,2.8-1.2,2.8-2.8
		C127.8,60,126.7,58.8,125.1,58.8z"/>
	<g>
	</g>
	<g>
	</g>
	<g>
	</g>
	<g>
	</g>
	<g>
	</g>
	<g>
	</g>
</g>
</svg>
