<?xml version="1.0" encoding="UTF-8"?>
<svg id="_3" data-name="3" xmlns="http://www.w3.org/2000/svg" viewBox="0 0 1024 1024">
  <defs>
    <style>
      .cls-1 {
        fill: #5cb8ff;
        fill-rule: evenodd;
      }
    </style>
  </defs>
  <path class="cls-1" d="M528.94,701.67c91.74-47.09,193.89-125.36,210.81-231.33,19.16-119.96-87.65-204.28-182.81-102.52l-28.07,29.97-27.97-30.03c-94.74-101.63-201.71-17.38-182.87,102.3,1.63,10.4,4.09,20.55,7.31,30.41h55.5c3.19,0,6.19,1.55,7.98,4.19,.06,.09,.13,.19,.19,.29l17.82,28.29,11.21-48.77c.7-3.65,3.51-6.53,7.15-7.42,2.52-.63,5.24-.19,7.44,1.2,2.17,1.36,3.77,3.58,4.25,6.06l12.61,58.25,13.41-130.65c.32-4.31,3.51-7.8,7.76-8.63,.61-.13,1.21-.19,1.82-.19,4.6,0,8.59,3.23,9.48,7.71,.03,.19,.06,.38,.1,.54l13.7,97.96,3.29-3.39c1.82-1.78,4.28-2.82,6.83-2.82h23.09l14.02-35.83c.93-2.57,2.87-4.57,5.43-5.58,2.52-.98,5.4-.89,7.82,.29,2.23,1.08,3.96,2.98,4.79,5.33l14.46,36.34h132.9c5.3,0,9.65,4.28,9.65,9.55s-4.34,9.58-9.65,9.58h-139.41c-3.29,0-6.32-1.68-8.11-4.38-.35-.54-.64-1.11-.89-1.68l-7.92-19.91-7.5,19.25c-1.4,3.71-4.98,6.15-9,6.15h-25.58l-13.99,14.33c-1.82,1.93-4.37,3.04-7.06,3.04-.03,0-.06,0-.03,0-2.2,0-4.34-.76-6-2.12-1.98-1.55-3.22-3.84-3.51-6.31l-5.4-38.53-11.5,111.88c-.38,4.95-4.63,8.75-9.64,8.75-4.41,0-8.21-3.01-9.26-7.23-.03-.13-.06-.22-.06-.32l-16.32-75.16-6.77,29.46c-1.15,5.04-6.16,8.31-11.27,7.29-.83-.16-1.6-.41-2.36-.79-1.69-.86-3.1-2.13-4.06-3.77l-27.24-43.13h-42.95c1.49,3.18,3.68,7.72,6.51,13.07,24.66,46.63,55.48,75.04,76.03,93.65,39.7,35.95,80.58,59.77,113.84,75.4Z"/>
  <path class="cls-1" d="M298.87,496.16c9.36,0,16.91,7.54,16.91,16.79s-7.55,16.79-16.91,16.79-16.87-7.55-16.87-16.79,7.55-16.79,16.87-16.79h0Z"/>
</svg>